<?xml version="1.0"?>
<svg version="1.1" xmlns="http://www.w3.org/2000/svg" width="90" height="110" 
style=""><path fill="#ffffff" 
d="M35.16,52.72q3.92,0,3.92,1.48q0,0.32-0.24,0.72q-0.96,1.48-3.48,1.48q-1.64,0-3.36-0.58t-2.6-1.22q-3.72,1.08-6.62,3.32t-4.34,5.08q-0.76,1.52-0.76,2.96q0,2.24,1.86,3.64t5.46,1.4q1,0,2.08-0.12q6.36-0.68,10.12-4.08q3.16-2.8,3.16-5.88q0-2.44-2.36-2.44q-2.84,0-6.52,3.04q-0.92,0.76-1.56,1.92t-0.64,2.28t1.12,1.4q0.4,0.16,0.4,0.4q0,0.4-0.8,0.32q-1.92-0.04-1.92-2.52t2.52-4.64q3.44-2.96,7.28-2.96q2.88,0,3.64,1.8q0.32,0.84,0.32,1.68q0,3.72-4.12,7q-4.92,4-12.48,4q-4.68,0-7.4-1.74t-2.72-4.54q0-1.64,1.04-3.28q3.68-5.84,12.56-8.68q-1.32-1.52-1.32-3.24t0.84-2.88q1.64-2.24,4.92-3.68q3.92-1.72,7.84-1.72q2.28,0,3.66,0.74t1.38,2.28t-1.14,2.6t-2.38,1.06t-1.24-0.6q0-0.36,0.52-0.36l0.8,0.12q0.8,0,1.46-0.86t0.66-1.78q0-1.36-1.56-2q-1-0.4-1.88-0.4t-1.24,0.04q-3.44,0.2-6.72,2.4q-3.84,2.52-3.84,5.68q0,1.16,0.8,2.16q2.56-0.8,4.88-0.8z M30.96,54.16q1.72,1.36,3.96,1.36t2.24-1.24q0-0.56-2-0.56t-4.2,0.44z M78.7668,45.32q0,3.16-3.08,7.44q-2.4,3.36-6.38,5.4t-7.34,2.04q-1.24,0-2.08-0.28q-1.68,2.16-5.4,6.76q1.4,2,5.06,3.76t6.3,1.76t3.92-0.72q1.76-0.92,1.76-2.64q0-0.44-0.08-0.84t0.26-0.4t0.6,0.58t0.26,1.02q0,1.4-1.48,2.64q-1.88,1.52-5.12,1.52t-6.72-1.52t-5.72-4.12q-3.2,3.2-6.08,3.2q-0.88,0-1.52-0.32q-1.4-0.8-1.4-3.04t1.86-5.52t2.94-3.48q0.72,0,1.64,1.64l2.52,4.88q2.12-2.8,4.44-6.12q-3.28-1.48-3.28-4.28q0-2.32,1.88-3.76q1.04-0.76,2.22-0.76t1.78,1.24q0.12,0.24,0.02,0.3t-0.14,0.02q-0.8-0.8-1.72-0.8l-0.08,0q-1.16,0-2.02,1.24t-0.86,2.28l0,0.24q0,2.08,2.88,3.56q0.48-0.68,1.54-2.26t1.66-2.46q7.96-11.68,13.24-11.68q3.72,0,3.72,3.48z M75.2068,42.52q-2,0-4.96,3.36q-2.04,2.36-4.78,6.34t-4.94,6.82q0.52,0.12,1.16,0.12q2.8,0,6.4-1.92t5.68-4.84q3.64-5.08,3.64-7.72q0-1.6-1.4-2.04q-0.36-0.12-0.8-0.12z M52.4868,66.4q-0.96-1.32-2-3.38t-1.38-2.46t-0.46-0.4l-0.16,0q-0.72,0.12-1.56,2.56t-0.84,4.78t1.44,2.34q1.04,0,2.5-1.08t2.46-2.36z"/><path fill="#" d=""/></svg>
